<svg xmlns="http://www.w3.org/2000/svg" width="83" height="83" viewBox="0 0 83 83" fill="none">
<path d="M43.0617 52L37.1817 34.56L31.4217 52H26.8617L19.0617 28.8C18.6617 27.5733 18.2084 26.64 17.7017 26C17.1951 25.36 16.4484 24.6667 15.4617 23.92L15.9817 23.28H24.9817L25.4617 24.64L24.5417 24.88C23.9017 25.04 23.4351 25.2533 23.1417 25.52C22.8751 25.7867 22.7417 26.16 22.7417 26.64C22.7417 27.0667 22.8884 27.72 23.1817 28.6L29.7017 48.68L35.6617 30.08L35.2617 28.8C34.8617 27.5733 34.4084 26.64 33.9017 26C33.3951 25.36 32.6484 24.6667 31.6617 23.92L32.1817 23.28H41.1817L41.6617 24.64L40.7417 24.88C40.1017 25.04 39.6351 25.2533 39.3417 25.52C39.0751 25.7867 38.9417 26.16 38.9417 26.64C38.9417 27.0667 39.0884 27.72 39.3817 28.6L45.9017 48.68L51.5017 31.28C52.0084 29.68 52.2617 28.44 52.2617 27.56C52.2084 26.0933 51.6084 25.2 50.4617 24.88L49.5417 24.64L50.0217 23.28H57.6217L58.1417 23.92L57.5417 24.64C56.5551 25.8133 55.8217 27.1467 55.3417 28.64L47.6217 52H43.0617Z" fill="black"/>
<path d="M63.8327 36.6C63.8327 38.0933 63.4727 39.44 62.7527 40.64C62.0593 41.84 61.0193 42.7733 59.6327 43.44C61.4193 44.0267 62.806 44.92 63.7927 46.12C64.806 47.32 65.3127 48.6533 65.3127 50.12C65.3127 52.5467 64.486 54.4667 62.8327 55.88C61.1793 57.2933 58.5393 58 54.9127 58H43.7527L43.2727 56.64L44.1927 56.4C45.206 56.1067 45.886 55.72 46.2327 55.24C46.5793 54.76 46.7527 53.9067 46.7527 52.68V32.92C46.7527 32.5733 46.686 32.3333 46.5527 32.2C46.4193 32.04 46.1927 31.96 45.8727 31.96H43.5527L43.0727 30.48C44.2193 30.0267 45.726 29.6267 47.5927 29.28C49.4593 28.9067 51.2593 28.72 52.9927 28.72C56.646 28.72 59.366 29.4533 61.1527 30.92C62.9393 32.3867 63.8327 34.28 63.8327 36.6ZM50.7127 50.68C50.7127 52.8667 51.1527 54.2933 52.0327 54.96C52.9127 55.6 53.9527 55.92 55.1527 55.92C57.0193 55.92 58.486 55.3733 59.5527 54.28C60.6193 53.16 61.1527 51.7067 61.1527 49.92C61.1527 48.9067 60.886 47.9867 60.3527 47.16C59.846 46.3067 59.1127 45.6267 58.1527 45.12C57.1927 44.6133 56.0727 44.36 54.7927 44.36C54.3393 44.36 53.8593 44.3067 53.3527 44.2C52.8727 44.0933 52.486 43.9733 52.1927 43.84C51.7927 43.6533 51.5927 43.36 51.5927 42.96C51.5927 42.48 51.7793 42.24 52.1527 42.24C52.2593 42.24 52.4727 42.2933 52.7927 42.4C53.1393 42.48 53.5927 42.52 54.1527 42.52C55.966 42.52 57.366 41.9867 58.3527 40.92C59.366 39.8533 59.8727 38.44 59.8727 36.68C59.8727 35 59.2993 33.6267 58.1527 32.56C57.0327 31.4933 55.446 30.96 53.3927 30.96C51.606 30.96 50.7127 31.5733 50.7127 32.8V50.68Z" fill="black"/>
<path d="M23.4279 70L21.6639 64.768L19.9359 70H18.5679L16.2279 63.04C16.1079 62.672 15.9719 62.392 15.8199 62.2C15.6679 62.008 15.4439 61.8 15.1479 61.576L15.3039 61.384H18.0039L18.1479 61.792L17.8719 61.864C17.6799 61.912 17.5399 61.976 17.4519 62.056C17.3719 62.136 17.3319 62.248 17.3319 62.392C17.3319 62.52 17.3759 62.716 17.4639 62.98L19.4199 69.004L21.2079 63.424L21.0879 63.04C20.9679 62.672 20.8319 62.392 20.6799 62.2C20.5279 62.008 20.3039 61.8 20.0079 61.576L20.1639 61.384H22.8639L23.0079 61.792L22.7319 61.864C22.5399 61.912 22.3999 61.976 22.3119 62.056C22.2319 62.136 22.1919 62.248 22.1919 62.392C22.1919 62.52 22.2359 62.716 22.3239 62.98L24.2799 69.004L25.9599 63.784C26.1119 63.304 26.1879 62.932 26.1879 62.668C26.1719 62.228 25.9919 61.96 25.6479 61.864L25.3719 61.792L25.5159 61.384H27.7959L27.9519 61.576L27.7719 61.792C27.4759 62.144 27.2559 62.544 27.1119 62.992L24.7959 70H23.4279ZM29.2349 62.104C29.2349 61.952 29.3189 61.784 29.4869 61.6C29.6629 61.408 29.8229 61.312 29.9669 61.312C30.1189 61.312 30.2829 61.404 30.4589 61.588C30.6349 61.772 30.7229 61.944 30.7229 62.104C30.7229 62.256 30.6349 62.424 30.4589 62.608C30.2829 62.792 30.1189 62.884 29.9669 62.884C29.8309 62.884 29.6749 62.792 29.4989 62.608C29.3229 62.424 29.2349 62.256 29.2349 62.104ZM30.5069 68.944C30.5069 69.216 30.6269 69.352 30.8669 69.352C31.0669 69.352 31.2669 69.268 31.4669 69.1L31.6949 69.412C31.4869 69.644 31.2629 69.828 31.0229 69.964C30.7829 70.1 30.5589 70.168 30.3509 70.168C30.0229 70.168 29.7869 70.068 29.6429 69.868C29.4989 69.668 29.4269 69.344 29.4269 68.896V65.176C29.4269 65.08 29.4069 65.012 29.3669 64.972C29.3349 64.932 29.2749 64.912 29.1869 64.912H28.6589L28.5509 64.6C28.7829 64.392 29.0469 64.22 29.3429 64.084C29.6389 63.948 29.9029 63.88 30.1349 63.88C30.2469 63.88 30.3389 63.916 30.4109 63.988C30.4829 64.06 30.5189 64.152 30.5189 64.264L30.5069 68.944ZM35.7091 64.036C35.7091 64.204 35.6851 64.356 35.6371 64.492C35.5891 64.628 35.5211 64.728 35.4331 64.792H34.1491V68.656C34.1491 68.904 34.1851 69.08 34.2571 69.184C34.3291 69.288 34.4451 69.34 34.6051 69.34C34.8451 69.34 35.1171 69.212 35.4211 68.956L35.6491 69.268C35.4411 69.54 35.1931 69.76 34.9051 69.928C34.6171 70.088 34.3451 70.168 34.0891 70.168C33.7611 70.168 33.5051 70.068 33.3211 69.868C33.1451 69.66 33.0571 69.376 33.0571 69.016V64.792H32.0011C32.0011 64.576 32.0171 64.436 32.0491 64.372C32.0811 64.308 32.1611 64.26 32.2891 64.228C32.7131 64.116 33.0131 63.936 33.1891 63.688C33.3731 63.432 33.5051 63.104 33.5851 62.704C33.6091 62.576 33.6491 62.496 33.7051 62.464C33.7691 62.432 33.9171 62.416 34.1491 62.416V64.036H35.7091ZM37.255 61.912C37.255 61.816 37.235 61.748 37.195 61.708C37.163 61.668 37.103 61.648 37.015 61.648H36.487L36.379 61.336C36.611 61.128 36.875 60.956 37.171 60.82C37.475 60.684 37.739 60.616 37.963 60.616C38.075 60.616 38.167 60.652 38.239 60.724C38.311 60.796 38.347 60.888 38.347 61V65.668C38.555 65.148 38.867 64.72 39.283 64.384C39.699 64.048 40.135 63.88 40.591 63.88C41.175 63.88 41.587 64.052 41.827 64.396C42.075 64.74 42.199 65.296 42.199 66.064V68.968C42.199 69.24 42.319 69.376 42.559 69.376C42.759 69.376 42.959 69.292 43.159 69.124L43.387 69.436C43.179 69.668 42.955 69.852 42.715 69.988C42.475 70.124 42.251 70.192 42.043 70.192C41.715 70.192 41.479 70.092 41.335 69.892C41.191 69.692 41.119 69.368 41.119 68.92V66.064C41.119 65.64 41.039 65.328 40.879 65.128C40.727 64.92 40.463 64.816 40.087 64.816C39.743 64.816 39.439 64.952 39.175 65.224C38.919 65.496 38.715 65.88 38.563 66.376C38.419 66.872 38.347 67.44 38.347 68.08C38.347 68.456 38.375 68.756 38.431 68.98C38.487 69.204 38.587 69.42 38.731 69.628L38.875 69.82L38.731 70H36.631L36.499 69.628L36.751 69.568C36.951 69.52 37.083 69.436 37.147 69.316C37.219 69.188 37.255 68.972 37.255 68.668V61.912ZM50.5397 64.552C50.3237 64.552 50.1477 64.58 50.0117 64.636C49.8757 64.684 49.7957 64.708 49.7717 64.708C49.7237 64.708 49.6797 64.68 49.6397 64.624C49.6077 64.568 49.5917 64.508 49.5917 64.444C49.5917 64.348 49.6277 64.276 49.6997 64.228C50.0677 63.996 50.4717 63.88 50.9117 63.88C51.4077 63.88 51.8477 64.004 52.2317 64.252C52.6237 64.5 52.9277 64.844 53.1437 65.284C53.3597 65.724 53.4677 66.224 53.4677 66.784C53.4677 67.424 53.3317 68.004 53.0597 68.524C52.7877 69.036 52.4157 69.44 51.9437 69.736C51.4717 70.024 50.9397 70.168 50.3477 70.168C49.8837 70.168 49.4517 70.1 49.0517 69.964C48.6517 69.828 48.3357 69.644 48.1037 69.412V61.912C48.1037 61.816 48.0837 61.748 48.0437 61.708C48.0117 61.668 47.9517 61.648 47.8637 61.648H47.3357L47.2277 61.336C47.4597 61.128 47.7237 60.956 48.0197 60.82C48.3157 60.684 48.5797 60.616 48.8117 60.616C48.9237 60.616 49.0157 60.652 49.0877 60.724C49.1597 60.796 49.1957 60.888 49.1957 61V69.112C49.3877 69.248 49.5797 69.348 49.7717 69.412C49.9717 69.468 50.1997 69.496 50.4557 69.496C50.9917 69.496 51.4157 69.276 51.7277 68.836C52.0397 68.388 52.1957 67.784 52.1957 67.024C52.1957 66.544 52.1237 66.116 51.9797 65.74C51.8437 65.364 51.6517 65.072 51.4037 64.864C51.1557 64.656 50.8677 64.552 50.5397 64.552ZM60.1859 68.944C60.1859 69.192 60.3019 69.316 60.5339 69.316C60.7179 69.316 60.9139 69.244 61.1219 69.1L61.3499 69.412C61.1659 69.636 60.9499 69.82 60.7019 69.964C60.4619 70.1 60.2379 70.168 60.0299 70.168C59.7099 70.168 59.4739 70.076 59.3219 69.892C59.1779 69.708 59.1059 69.416 59.1059 69.016C58.9219 69.368 58.6459 69.648 58.2779 69.856C57.9179 70.064 57.5179 70.168 57.0779 70.168C56.5019 70.168 56.0499 69.996 55.7219 69.652C55.4019 69.3 55.2419 68.808 55.2419 68.176V65.176C55.2419 65 55.1619 64.912 55.0019 64.912H54.4739L54.3659 64.6C54.5739 64.392 54.8259 64.22 55.1219 64.084C55.4259 63.948 55.7019 63.88 55.9499 63.88C56.0619 63.88 56.1539 63.916 56.2259 63.988C56.2979 64.06 56.3339 64.152 56.3339 64.264V67.9C56.3339 68.38 56.4299 68.744 56.6219 68.992C56.8219 69.24 57.1099 69.364 57.4859 69.364C58.0219 69.364 58.4379 69.132 58.7339 68.668C59.0379 68.204 59.1899 67.564 59.1899 66.748C59.1899 66.156 59.1539 65.696 59.0819 65.368C59.0179 65.032 58.8979 64.712 58.7219 64.408L58.5779 64.216L58.7219 64.036L60.1859 63.88V68.944ZM65.0799 73.336C64.6399 73.336 64.2639 73.252 63.9519 73.084C63.6399 72.924 63.4079 72.712 63.2559 72.448C63.1039 72.192 63.0279 71.916 63.0279 71.62C63.0279 71.22 63.1639 70.876 63.4359 70.588C63.7079 70.308 64.0799 70.168 64.5519 70.168C64.6319 70.168 64.6879 70.18 64.7199 70.204C64.7599 70.236 64.7799 70.268 64.7799 70.3C64.7799 70.332 64.7239 70.408 64.6119 70.528C64.4999 70.648 64.3999 70.792 64.3119 70.96C64.2319 71.128 64.1919 71.34 64.1919 71.596C64.1919 71.916 64.2839 72.18 64.4679 72.388C64.6599 72.604 64.9159 72.712 65.2359 72.712C65.7319 72.712 66.0959 72.508 66.3279 72.1C66.5599 71.692 66.6759 71.144 66.6759 70.456V68.68C66.4919 69.032 66.2159 69.312 65.8479 69.52C65.4799 69.72 65.0759 69.82 64.6359 69.82C64.0679 69.82 63.6239 69.648 63.3039 69.304C62.9839 68.952 62.8239 68.46 62.8239 67.828V65.164C62.8239 65.068 62.8039 65 62.7639 64.96C62.7319 64.92 62.6719 64.9 62.5839 64.9H62.0559L61.9479 64.588C62.1559 64.38 62.4079 64.208 62.7039 64.072C63.0079 63.936 63.2839 63.868 63.5319 63.868C63.6439 63.868 63.7359 63.904 63.8079 63.976C63.8799 64.048 63.9159 64.14 63.9159 64.252V67.552C63.9159 68.032 64.0119 68.396 64.2039 68.644C64.3959 68.892 64.6759 69.016 65.0439 69.016C65.5799 69.016 65.9959 68.816 66.2919 68.416C66.5959 68.008 66.7479 67.448 66.7479 66.736C66.7479 66.08 66.7199 65.592 66.6639 65.272C66.6079 64.952 66.4799 64.66 66.2799 64.396L66.1359 64.204L66.2799 64.024L67.7439 63.868V70.264C67.7439 71.248 67.5039 72.004 67.0239 72.532C66.5519 73.068 65.9039 73.336 65.0799 73.336Z" fill="black"/>
</svg>